Coordinates
version=1
nRows=10
nColumns=40
inDegrees=yes

Units are S.I. units (second, meters, Newtons, ...)
Angles are in degrees.

endheader
time	pelvis_tilt	pelvis_list	pelvis_rotation	pelvis_tx	pelvis_ty	pelvis_tz	hip_flexion_r	hip_adduction_r	hip_rotation_r	knee_angle_r	knee_angle_r_beta	ankle_angle_r	subtalar_angle_r	mtp_angle_r	hip_flexion_l	hip_adduction_l	hip_rotation_l	knee_angle_l	knee_angle_l_beta	ankle_angle_l	subtalar_angle_l	mtp_angle_l	lumbar_extension	lumbar_bending	lumbar_rotation	arm_flex_r	arm_add_r	arm_rot_r	elbow_flex_r	pro_sup_r	wrist_flex_r	wrist_dev_r	arm_flex_l	arm_add_l	arm_rot_l	elbow_flex_l	pro_sup_l	wrist_flex_l	wrist_dev_l
     26.05678571	     -5.36892897	     -6.82013547	      5.79973305	      1.01009424	      0.91652777	      0.46159743	     -0.63959000	      6.95280366	    -16.34714458	      8.71097892	      8.71097892	     16.60221187	      5.27208132	     -4.23590600	     33.99058558	     -8.46598911	     -3.34062834	     23.31177727	     23.31177727	      5.01836995	    -10.07964547	     10.96924883	     -8.28863605	      7.05251962	      4.27019112	     49.83458676	    -17.72022327	     -2.95524156	     90.32213065	     44.36850162	      0.00000000	      0.00000000	    -17.09893238	     -7.23671875	      4.42111923	     24.40759223	     45.28434388	      0.00000000	      0.00000000
     26.06857143	     -5.41330912	     -6.69047542	      5.75217411	      1.01089148	      0.91550427	      0.45947129	     -0.77468865	      6.55713679	    -16.36971092	      9.58502409	      9.58502409	     17.74529083	      5.47529664	     -2.75410235	     33.47567506	     -8.01898398	     -2.74702415	     23.56487198	     23.56487198	      3.59428950	    -11.75382038	      8.60049174	     -8.15849899	      6.85637434	      4.70352487	     49.01813038	    -18.23869021	     -3.75702643	     93.19645008	     44.34847060	      0.00000000	      0.00000000	    -17.45041232	     -7.45158481	      4.91194694	     25.52415616	     45.18241333	      0.00000000	      0.00000000
     26.08035714	     -5.44822315	     -6.58810860	      5.70530282	      1.01174916	      0.91481010	      0.45735847	     -1.21174356	      6.30225527	    -16.24064917	      9.79216464	      9.79216464	     18.01082692	      5.43856274	     -2.79161526	     33.07029773	     -7.78781211	     -2.65352324	     24.06555630	     24.06555630	      3.63287355	    -11.91017765	      8.41335276	     -7.89702189	      6.71407666	      4.66601528	     48.84951186	    -18.21640781	     -3.76711439	     93.24715165	     44.34899354	      0.00000000	      0.00000000	    -17.57172840	     -7.33784848	      4.96616101	     25.46366714	     45.17156547	      0.00000000	      0.00000000
     26.09214286	     -5.53076117	     -6.46011746	      5.65091439	      1.01232188	      0.91416149	      0.45507510	     -1.19861629	      5.87018796	    -16.18070666	     10.76859990	     10.76859990	     18.53285239	      5.24078635	     -2.68646811	     32.81654758	     -7.49555665	     -2.44569993	     24.63796922	     24.63796922	      3.49375533	    -12.49238881	      7.74956145	     -7.69211517	      6.56167782	      4.54022085	     48.48559805	    -18.07945064	     -3.95501504	     93.81480314	     44.34991390	      0.00000000	      0.00000000	    -17.49555469	     -7.26237225	      5.16996647	     25.35758834	     45.14180437	      0.00000000	      0.00000000
     26.10392857	     -5.52163029	     -6.32612441	      5.63881504	      1.01303434	      0.91409383	      0.45270036	     -1.59203679	      5.53918576	    -16.08238321	     11.11182390	     11.11182390	     18.66428337	      5.17618194	     -2.68564267	     32.39702628	     -7.22859999	     -2.29625668	     25.06138071	     25.06138071	      3.76651058	    -12.70636711	      7.46332899	     -7.54946267	      6.38693085	      4.39865909	     47.96880639	    -18.02658599	     -3.95694410	     93.81917652	     44.35045289	      0.00000000	      0.00000000	    -17.31516266	     -7.15125684	      5.21441223	     25.39825320	     45.13815963	      0.00000000	      0.00000000
     26.11571429	     -5.65865508	     -6.10264821	      5.56127213	      1.01332656	      0.91406518	      0.45018582	     -1.28150553	      4.89411236	    -16.08386135	     12.51440978	     12.51440978	     19.07645912	      4.94169093	     -2.65495482	     32.11669973	     -6.86262873	     -2.21806226	     25.37921856	     25.37921856	      3.81337865	    -13.20553609	      6.78090937	     -7.35706854	      6.14084445	      4.40870824	     47.12402901	    -18.05149925	     -4.36585277	     94.29973011	     44.35935675	      0.00000000	      0.00000000	    -16.90048975	     -7.13788574	      5.33255283	     25.30379250	     45.13101368	      0.00000000	      0.00000000
     26.12750000	     -5.58737194	     -6.00596084	      5.58408138	      1.01383766	      0.91476556	      0.44755801	     -1.56476893	      4.53804943	    -16.05761165	     13.13427096	     13.13427096	     19.03026261	      4.82513270	     -2.65991562	     31.62889903	     -6.63754646	     -2.09378176	     25.67800197	     25.67800197	      4.24316159	    -13.39647044	      6.44262142	     -7.35318074	      6.08115623	      4.20268811	     46.24025285	    -17.93374358	     -4.37910309	     94.22286685	     44.36218469	      0.00000000	      0.00000000	    -16.42959206	     -7.03430367	      5.37165897	     25.39630364	     45.13427237	      0.00000000	      0.00000000
     26.13928571	     -5.53443598	     -5.88083695	      5.57209791	      1.01416602	      0.91573824	      0.44487537	     -1.55729148	      4.05394279	    -16.05006991	     14.25729834	     14.25729834	     18.97491197	      4.59313807	     -2.79619659	     31.09397547	     -6.40425150	     -2.07007401	     25.84583729	     25.84583729	      4.71749960	    -13.52026972	      6.08382243	     -7.36733896	      5.99364354	      4.01736112	     45.13715849	    -17.79291271	     -4.44078323	     94.08614850	     44.36810331	      0.00000000	      0.00000000	    -15.81640818	     -6.95878375	      5.39914927	     25.49366647	     45.14266962	      0.00000000	      0.00000000
     26.15107143	     -5.80445810	     -5.59289047	      5.43407736	      1.01407400	      0.91648805	      0.44218128	     -0.64419648	      3.13393023	    -16.11286153	     16.46181693	     16.46181693	     19.02568412	      4.34122099	     -3.35154739	     30.69962838	     -5.99735719	     -2.23408884	     25.63148244	     25.63148244	      4.75779387	    -13.86660734	      5.03499275	     -7.09472248	      5.64668645	      4.66580926	     43.36027828	    -18.09026647	     -6.09516872	     94.84596422	     44.43271495	      0.00000000	      0.00000000	    -14.42519843	     -6.95362252	      5.47246060	     24.64813515	     45.18132455	      0.00000000	      0.00000000
     26.16285714	     -5.84546800	     -5.41106486	      5.34308107	      1.01411701	      0.91785660	      0.43949762	     -0.11395751	      2.44595304	    -15.97123807	     18.32167263	     18.32167263	     18.70903208	      3.82129733	     -3.82784167	     30.07817419	     -5.75938597	     -2.50775456	     25.46705844	     25.46705844	      5.26260175	    -13.70168701	      4.70181588	     -7.07212646	      5.47016287	      4.50170811	     42.06708279	    -17.96285197	     -6.07566181	     94.38989613	     44.45043763	      0.00000000	      0.00000000	    -13.59893164	     -6.89381372	      5.47255311	     24.79243185	     45.20070216	      0.00000000	      0.00000000
